<svg xmlns="http://www.w3.org/2000/svg" version="1.1" xmlns:xlink="http://www.w3.org/1999/xlink" xmlns:svgjs="http://svgjs.com/svgjs" width="512" height="512" x="0" y="0" viewBox="0 0 64 64" style="enable-background:new 0 0 512 512" xml:space="preserve"><g><path d="M18 26.289a3 3 0 0 1-4 0l-1.054-.944L5.5 32h21l-7.448-6.655zM28 17.342l-7.445 6.662L28 30.656zM11.618 34l-2.276 4.553A1 1 0 0 0 10.236 40h19.528a1 1 0 0 0 .894-.553L33.382 34z" fill="#ffffff" data-original="#000000"></path><path d="M34 32V15a11 11 0 0 0-21.949-1H29a1 1 0 0 1 1 1v17z" fill="#ffffff" data-original="#000000"></path><path d="M15.333 24.8a1 1 0 0 0 1.334 0L26.5 16h-21zM4 30.656l7.445-6.652L4 17.342zM60 15A11.013 11.013 0 0 0 49 4H29.924A12.915 12.915 0 0 1 36 15v17h24zM41 34h-5.382L33 39.236V60h8z" fill="#ffffff" data-original="#000000"></path></g></svg>